<?xml version="1.0" encoding="UTF-8" standalone="no"?>
<!DOCTYPE svg PUBLIC "-//W3C//DTD SVG 1.1//EN"
 "http://www.w3.org/Graphics/SVG/1.1/DTD/svg11.dtd">
<!-- Generated by graphviz version 2.40.1 (20161225.0304)
 -->
<!-- Title: %0 Pages: 1 -->
<svg width="1236pt" height="1694pt"
 viewBox="0.00 0.00 1236.13 1693.67" xmlns="http://www.w3.org/2000/svg" xmlns:xlink="http://www.w3.org/1999/xlink">
<g id="graph0" class="graph" transform="scale(1 1) rotate(0) translate(144 1549.6723)">
<title>%0</title>
<polygon fill="#ffffff" stroke="transparent" points="-144,144 -144,-1549.6723 1092.1292,-1549.6723 1092.1292,144 -144,144"/>
<!-- assignments -->
<g id="node1" class="node">
<title>assignments</title>
<polygon fill="#4477c9" stroke="transparent" points="548.0836,-1136 548.0836,-1334 630.0836,-1334 630.0836,-1136 548.0836,-1136"/>
<polygon fill="#add8e6" stroke="transparent" points="548.0836,-1316 548.0836,-1334 630.0836,-1334 630.0836,-1316 548.0836,-1316"/>
<polygon fill="none" stroke="#000000" points="548.0836,-1316 548.0836,-1334 630.0836,-1334 630.0836,-1316 548.0836,-1316"/>
<text text-anchor="start" x="564.8367" y="-1322.9" font-family="Times,serif" font-weight="bold" font-style="italic" font-size="9.00" fill="#000000"> assignments </text>
<polygon fill="none" stroke="#000000" points="548.0836,-1296 548.0836,-1316 630.0836,-1316 630.0836,-1296 548.0836,-1296"/>
<text text-anchor="start" x="553.0836" y="-1302.9" font-family="Times,serif" font-size="9.00" fill="#000000">title: String</text>
<polygon fill="none" stroke="#000000" points="548.0836,-1276 548.0836,-1296 630.0836,-1296 630.0836,-1276 548.0836,-1276"/>
<text text-anchor="start" x="553.0836" y="-1282.9" font-family="Times,serif" font-size="9.00" fill="#000000">description: String</text>
<polygon fill="none" stroke="#000000" points="548.0836,-1256 548.0836,-1276 630.0836,-1276 630.0836,-1256 548.0836,-1256"/>
<text text-anchor="start" x="553.0836" y="-1262.9" font-family="Times,serif" font-size="9.00" fill="#000000">course: ObjectId</text>
<polygon fill="none" stroke="#000000" points="548.0836,-1236 548.0836,-1256 630.0836,-1256 630.0836,-1236 548.0836,-1236"/>
<text text-anchor="start" x="553.0836" y="-1242.9" font-family="Times,serif" font-size="9.00" fill="#000000">dueDate: Date</text>
<polygon fill="none" stroke="#000000" points="548.0836,-1216 548.0836,-1236 630.0836,-1236 630.0836,-1216 548.0836,-1216"/>
<text text-anchor="start" x="552.7114" y="-1222.9" font-family="Times,serif" font-size="9.00" fill="#000000">totalPoints: Number</text>
<polygon fill="none" stroke="#000000" points="548.0836,-1196 548.0836,-1216 630.0836,-1216 630.0836,-1196 548.0836,-1196"/>
<text text-anchor="start" x="553.0836" y="-1202.9" font-family="Times,serif" font-size="9.00" fill="#000000">submissions: Array</text>
<polygon fill="none" stroke="#000000" points="548.0836,-1176 548.0836,-1196 630.0836,-1196 630.0836,-1176 548.0836,-1176"/>
<text text-anchor="start" x="553.0836" y="-1182.9" font-family="Times,serif" font-size="9.00" fill="#000000">createdAt: Date</text>
<polygon fill="none" stroke="#000000" points="548.0836,-1156 548.0836,-1176 630.0836,-1176 630.0836,-1156 548.0836,-1156"/>
<text text-anchor="start" x="553.0836" y="-1162.9" font-family="Times,serif" font-size="9.00" fill="#000000">_id: ObjectId</text>
<polygon fill="none" stroke="#000000" points="548.0836,-1136 548.0836,-1156 630.0836,-1156 630.0836,-1136 548.0836,-1136"/>
<text text-anchor="start" x="553.0836" y="-1142.9" font-family="Times,serif" font-size="9.00" fill="#000000">__v: Number</text>
</g>
<!-- submissions -->
<g id="node7" class="node">
<title>submissions</title>
<polygon fill="#4477c9" stroke="transparent" points="855.1292,-1179 855.1292,-1397 941.1292,-1397 941.1292,-1179 855.1292,-1179"/>
<polygon fill="#add8e6" stroke="transparent" points="855.1292,-1379 855.1292,-1397 941.1292,-1397 941.1292,-1379 855.1292,-1379"/>
<polygon fill="none" stroke="#000000" points="855.1292,-1379 855.1292,-1397 941.1292,-1397 941.1292,-1379 855.1292,-1379"/>
<text text-anchor="start" x="873.8773" y="-1385.9" font-family="Times,serif" font-weight="bold" font-style="italic" font-size="9.00" fill="#000000"> submissions </text>
<polygon fill="none" stroke="#000000" points="855.1292,-1359 855.1292,-1379 941.1292,-1379 941.1292,-1359 855.1292,-1359"/>
<text text-anchor="start" x="859.764" y="-1365.9" font-family="Times,serif" font-size="9.00" fill="#000000">assignment: ObjectId</text>
<polygon fill="none" stroke="#000000" points="855.1292,-1339 855.1292,-1359 941.1292,-1359 941.1292,-1339 855.1292,-1339"/>
<text text-anchor="start" x="860.1292" y="-1345.9" font-family="Times,serif" font-size="9.00" fill="#000000">student: ObjectId</text>
<polygon fill="none" stroke="#000000" points="855.1292,-1319 855.1292,-1339 941.1292,-1339 941.1292,-1319 855.1292,-1319"/>
<text text-anchor="start" x="860.1292" y="-1325.9" font-family="Times,serif" font-size="9.00" fill="#000000">content: String</text>
<polygon fill="none" stroke="#000000" points="855.1292,-1299 855.1292,-1319 941.1292,-1319 941.1292,-1299 855.1292,-1299"/>
<text text-anchor="start" x="860.1292" y="-1305.9" font-family="Times,serif" font-size="9.00" fill="#000000">attachments: Array</text>
<polygon fill="none" stroke="#000000" points="855.1292,-1279 855.1292,-1299 941.1292,-1299 941.1292,-1279 855.1292,-1279"/>
<text text-anchor="start" x="860.1292" y="-1285.9" font-family="Times,serif" font-size="9.00" fill="#000000">grade: Number</text>
<polygon fill="none" stroke="#000000" points="855.1292,-1259 855.1292,-1279 941.1292,-1279 941.1292,-1259 855.1292,-1259"/>
<text text-anchor="start" x="860.1292" y="-1265.9" font-family="Times,serif" font-size="9.00" fill="#000000">feedback: String</text>
<polygon fill="none" stroke="#000000" points="855.1292,-1239 855.1292,-1259 941.1292,-1259 941.1292,-1239 855.1292,-1239"/>
<text text-anchor="start" x="860.1292" y="-1245.9" font-family="Times,serif" font-size="9.00" fill="#000000">submittedAt: Date</text>
<polygon fill="none" stroke="#000000" points="855.1292,-1219 855.1292,-1239 941.1292,-1239 941.1292,-1219 855.1292,-1219"/>
<text text-anchor="start" x="860.1292" y="-1225.9" font-family="Times,serif" font-size="9.00" fill="#000000">gradedAt: Date</text>
<polygon fill="none" stroke="#000000" points="855.1292,-1199 855.1292,-1219 941.1292,-1219 941.1292,-1199 855.1292,-1199"/>
<text text-anchor="start" x="860.1292" y="-1205.9" font-family="Times,serif" font-size="9.00" fill="#000000">_id: ObjectId</text>
<polygon fill="none" stroke="#000000" points="855.1292,-1179 855.1292,-1199 941.1292,-1199 941.1292,-1179 855.1292,-1179"/>
<text text-anchor="start" x="860.1292" y="-1185.9" font-family="Times,serif" font-size="9.00" fill="#000000">__v: Number</text>
</g>
<!-- assignments&#45;&gt;submissions -->
<g id="edge9" class="edge">
<title>assignments:7&#45;&gt;submissions:0</title>
<path fill="none" stroke="#000000" stroke-dasharray="5,2" d="M630.0836,-1166C764.7836,-1166 720.4292,-1369 855.1292,-1369"/>
<text text-anchor="middle" x="741.3564" y="-1362.2" font-family="Times,serif" font-size="14.00" fill="#000000">assignments&#45;submissions</text>
<text text-anchor="middle" x="850.0759" y="-1356.4" font-family="Times,serif" font-size="14.00" fill="#000000">N</text>
<text text-anchor="middle" x="633.5836" y="-1153.4" font-family="Times,serif" font-size="14.00" fill="#000000">1</text>
</g>
<!-- courses -->
<g id="node2" class="node">
<title>courses</title>
<polygon fill="#4477c9" stroke="transparent" points="257.0036,-696 257.0036,-934 337.0036,-934 337.0036,-696 257.0036,-696"/>
<polygon fill="#add8e6" stroke="transparent" points="257.0036,-916 257.0036,-934 337.0036,-934 337.0036,-916 257.0036,-916"/>
<polygon fill="none" stroke="#000000" points="257.0036,-916 257.0036,-934 337.0036,-934 337.0036,-916 257.0036,-916"/>
<text text-anchor="start" x="281.2604" y="-922.9" font-family="Times,serif" font-weight="bold" font-style="italic" font-size="9.00" fill="#000000"> courses </text>
<polygon fill="none" stroke="#000000" points="257.0036,-896 257.0036,-916 337.0036,-916 337.0036,-896 257.0036,-896"/>
<text text-anchor="start" x="262.0036" y="-902.9" font-family="Times,serif" font-size="9.00" fill="#000000">title: String</text>
<polygon fill="none" stroke="#000000" points="257.0036,-876 257.0036,-896 337.0036,-896 337.0036,-876 257.0036,-876"/>
<text text-anchor="start" x="262.0036" y="-882.9" font-family="Times,serif" font-size="9.00" fill="#000000">description: String</text>
<polygon fill="none" stroke="#000000" points="257.0036,-856 257.0036,-876 337.0036,-876 337.0036,-856 257.0036,-856"/>
<text text-anchor="start" x="261.6399" y="-862.9" font-family="Times,serif" font-size="9.00" fill="#000000">instructor: ObjectId</text>
<polygon fill="none" stroke="#000000" points="257.0036,-836 257.0036,-856 337.0036,-856 337.0036,-836 257.0036,-836"/>
<text text-anchor="start" x="262.0036" y="-842.9" font-family="Times,serif" font-size="9.00" fill="#000000">students: Array</text>
<polygon fill="none" stroke="#000000" points="257.0036,-816 257.0036,-836 337.0036,-836 337.0036,-816 257.0036,-816"/>
<text text-anchor="start" x="262.0036" y="-822.9" font-family="Times,serif" font-size="9.00" fill="#000000">lectures: Array</text>
<polygon fill="none" stroke="#000000" points="257.0036,-796 257.0036,-816 337.0036,-816 337.0036,-796 257.0036,-796"/>
<text text-anchor="start" x="262.0036" y="-802.9" font-family="Times,serif" font-size="9.00" fill="#000000">assignments: Array</text>
<polygon fill="none" stroke="#000000" points="257.0036,-776 257.0036,-796 337.0036,-796 337.0036,-776 257.0036,-776"/>
<text text-anchor="start" x="262.0036" y="-782.9" font-family="Times,serif" font-size="9.00" fill="#000000">startDate: Date</text>
<polygon fill="none" stroke="#000000" points="257.0036,-756 257.0036,-776 337.0036,-776 337.0036,-756 257.0036,-756"/>
<text text-anchor="start" x="262.0036" y="-762.9" font-family="Times,serif" font-size="9.00" fill="#000000">endDate: Date</text>
<polygon fill="none" stroke="#000000" points="257.0036,-736 257.0036,-756 337.0036,-756 337.0036,-736 257.0036,-736"/>
<text text-anchor="start" x="262.0036" y="-742.9" font-family="Times,serif" font-size="9.00" fill="#000000">createdAt: Date</text>
<polygon fill="none" stroke="#000000" points="257.0036,-716 257.0036,-736 337.0036,-736 337.0036,-716 257.0036,-716"/>
<text text-anchor="start" x="262.0036" y="-722.9" font-family="Times,serif" font-size="9.00" fill="#000000">_id: ObjectId</text>
<polygon fill="none" stroke="#000000" points="257.0036,-696 257.0036,-716 337.0036,-716 337.0036,-696 257.0036,-696"/>
<text text-anchor="start" x="262.0036" y="-702.9" font-family="Times,serif" font-size="9.00" fill="#000000">__v: Number</text>
</g>
<!-- courses&#45;&gt;assignments -->
<g id="edge1" class="edge">
<title>courses:9&#45;&gt;assignments:2</title>
<path fill="none" stroke="#000000" stroke-dasharray="5,2" d="M337.0036,-726C395.4063,-726 361.4295,-930.1922 381.6032,-985 431.7456,-1121.2266 402.9218,-1266 548.0836,-1266"/>
<text text-anchor="middle" x="444.5934" y="-1264.2" font-family="Times,serif" font-size="14.00" fill="#000000">courses&#45;assignments</text>
<text text-anchor="middle" x="543.0303" y="-1253.4" font-family="Times,serif" font-size="14.00" fill="#000000">N</text>
<text text-anchor="middle" x="340.5036" y="-713.4" font-family="Times,serif" font-size="14.00" fill="#000000">1</text>
</g>
<!-- discussions -->
<g id="node3" class="node">
<title>discussions</title>
<polygon fill="#4477c9" stroke="transparent" points="554.5836,-226 554.5836,-404 623.5836,-404 623.5836,-226 554.5836,-226"/>
<polygon fill="#add8e6" stroke="transparent" points="555.0836,-386 555.0836,-404 624.0836,-404 624.0836,-386 555.0836,-386"/>
<polygon fill="none" stroke="#000000" points="555.0836,-386 555.0836,-404 624.0836,-404 624.0836,-386 555.0836,-386"/>
<text text-anchor="start" x="566.8348" y="-392.9" font-family="Times,serif" font-weight="bold" font-style="italic" font-size="9.00" fill="#000000"> discussions </text>
<polygon fill="none" stroke="#000000" points="555.0836,-366 555.0836,-386 624.0836,-386 624.0836,-366 555.0836,-366"/>
<text text-anchor="start" x="559.7221" y="-372.9" font-family="Times,serif" font-size="9.00" fill="#000000">course: ObjectId</text>
<polygon fill="none" stroke="#000000" points="555.0836,-346 555.0836,-366 624.0836,-366 624.0836,-346 555.0836,-346"/>
<text text-anchor="start" x="559.9691" y="-352.9" font-family="Times,serif" font-size="9.00" fill="#000000">author: ObjectId</text>
<polygon fill="none" stroke="#000000" points="555.0836,-326 555.0836,-346 624.0836,-346 624.0836,-326 555.0836,-326"/>
<text text-anchor="start" x="560.0836" y="-332.9" font-family="Times,serif" font-size="9.00" fill="#000000">title: String</text>
<polygon fill="none" stroke="#000000" points="555.0836,-306 555.0836,-326 624.0836,-326 624.0836,-306 555.0836,-306"/>
<text text-anchor="start" x="560.0836" y="-312.9" font-family="Times,serif" font-size="9.00" fill="#000000">content: String</text>
<polygon fill="none" stroke="#000000" points="555.0836,-286 555.0836,-306 624.0836,-306 624.0836,-286 555.0836,-286"/>
<text text-anchor="start" x="560.0836" y="-292.9" font-family="Times,serif" font-size="9.00" fill="#000000">replies: Array</text>
<polygon fill="none" stroke="#000000" points="555.0836,-266 555.0836,-286 624.0836,-286 624.0836,-266 555.0836,-266"/>
<text text-anchor="start" x="560.0836" y="-272.9" font-family="Times,serif" font-size="9.00" fill="#000000">createdAt: Date</text>
<polygon fill="none" stroke="#000000" points="555.0836,-246 555.0836,-266 624.0836,-266 624.0836,-246 555.0836,-246"/>
<text text-anchor="start" x="560.0836" y="-252.9" font-family="Times,serif" font-size="9.00" fill="#000000">_id: ObjectId</text>
<polygon fill="none" stroke="#000000" points="555.0836,-226 555.0836,-246 624.0836,-246 624.0836,-226 555.0836,-226"/>
<text text-anchor="start" x="560.0836" y="-232.9" font-family="Times,serif" font-size="9.00" fill="#000000">__v: Number</text>
</g>
<!-- courses&#45;&gt;discussions -->
<g id="edge3" class="edge">
<title>courses:9&#45;&gt;discussions:0</title>
<path fill="none" stroke="#000000" stroke-dasharray="5,2" d="M337.0036,-726C339.8674,-726 552.2198,-376 555.0836,-376"/>
<text text-anchor="middle" x="444.5934" y="-654.2" font-family="Times,serif" font-size="14.00" fill="#000000">courses&#45;discussions</text>
<text text-anchor="middle" x="550.0303" y="-363.4" font-family="Times,serif" font-size="14.00" fill="#000000">N</text>
<text text-anchor="middle" x="340.5036" y="-730.2" font-family="Times,serif" font-size="14.00" fill="#000000">1</text>
</g>
<!-- lectures -->
<g id="node4" class="node">
<title>lectures</title>
<polygon fill="#4477c9" stroke="transparent" points="550.0836,-866 550.0836,-1064 628.0836,-1064 628.0836,-866 550.0836,-866"/>
<polygon fill="#add8e6" stroke="transparent" points="550.0836,-1046 550.0836,-1064 628.0836,-1064 628.0836,-1046 550.0836,-1046"/>
<polygon fill="none" stroke="#000000" points="550.0836,-1046 550.0836,-1064 628.0836,-1064 628.0836,-1046 550.0836,-1046"/>
<text text-anchor="start" x="572.8417" y="-1052.9" font-family="Times,serif" font-weight="bold" font-style="italic" font-size="9.00" fill="#000000"> lectures </text>
<polygon fill="none" stroke="#000000" points="550.0836,-1026 550.0836,-1046 628.0836,-1046 628.0836,-1026 550.0836,-1026"/>
<text text-anchor="start" x="555.0836" y="-1032.9" font-family="Times,serif" font-size="9.00" fill="#000000">title: String</text>
<polygon fill="none" stroke="#000000" points="550.0836,-1006 550.0836,-1026 628.0836,-1026 628.0836,-1006 550.0836,-1006"/>
<text text-anchor="start" x="555.0836" y="-1012.9" font-family="Times,serif" font-size="9.00" fill="#000000">content: String</text>
<polygon fill="none" stroke="#000000" points="550.0836,-986 550.0836,-1006 628.0836,-1006 628.0836,-986 550.0836,-986"/>
<text text-anchor="start" x="555.0836" y="-992.9" font-family="Times,serif" font-size="9.00" fill="#000000">course: ObjectId</text>
<polygon fill="none" stroke="#000000" points="550.0836,-966 550.0836,-986 628.0836,-986 628.0836,-966 550.0836,-966"/>
<text text-anchor="start" x="555.0836" y="-972.9" font-family="Times,serif" font-size="9.00" fill="#000000">videoUrl: String</text>
<polygon fill="none" stroke="#000000" points="550.0836,-946 550.0836,-966 628.0836,-966 628.0836,-946 550.0836,-946"/>
<text text-anchor="start" x="554.7234" y="-952.9" font-family="Times,serif" font-size="9.00" fill="#000000">attachments: Array</text>
<polygon fill="none" stroke="#000000" points="550.0836,-926 550.0836,-946 628.0836,-946 628.0836,-926 550.0836,-926"/>
<text text-anchor="start" x="555.0836" y="-932.9" font-family="Times,serif" font-size="9.00" fill="#000000">order: Number</text>
<polygon fill="none" stroke="#000000" points="550.0836,-906 550.0836,-926 628.0836,-926 628.0836,-906 550.0836,-906"/>
<text text-anchor="start" x="555.0836" y="-912.9" font-family="Times,serif" font-size="9.00" fill="#000000">createdAt: Date</text>
<polygon fill="none" stroke="#000000" points="550.0836,-886 550.0836,-906 628.0836,-906 628.0836,-886 550.0836,-886"/>
<text text-anchor="start" x="555.0836" y="-892.9" font-family="Times,serif" font-size="9.00" fill="#000000">_id: ObjectId</text>
<polygon fill="none" stroke="#000000" points="550.0836,-866 550.0836,-886 628.0836,-886 628.0836,-866 550.0836,-866"/>
<text text-anchor="start" x="555.0836" y="-872.9" font-family="Times,serif" font-size="9.00" fill="#000000">__v: Number</text>
</g>
<!-- courses&#45;&gt;lectures -->
<g id="edge5" class="edge">
<title>courses:9&#45;&gt;lectures:2</title>
<path fill="none" stroke="#000000" stroke-dasharray="5,2" d="M337.0036,-726C375.2205,-726 511.8667,-996 550.0836,-996"/>
<text text-anchor="middle" x="444.5934" y="-954.2" font-family="Times,serif" font-size="14.00" fill="#000000">courses&#45;lectures</text>
<text text-anchor="middle" x="545.0303" y="-983.4" font-family="Times,serif" font-size="14.00" fill="#000000">N</text>
<text text-anchor="middle" x="333.5036" y="-730.2" font-family="Times,serif" font-size="14.00" fill="#000000">1</text>
</g>
<!-- quizzes -->
<g id="node5" class="node">
<title>quizzes</title>
<polygon fill="#4477c9" stroke="transparent" points="543.5836,-476 543.5836,-794 634.5836,-794 634.5836,-476 543.5836,-476"/>
<polygon fill="#add8e6" stroke="transparent" points="544.0836,-776 544.0836,-794 635.0836,-794 635.0836,-776 544.0836,-776"/>
<polygon fill="none" stroke="#000000" points="544.0836,-776 544.0836,-794 635.0836,-794 635.0836,-776 544.0836,-776"/>
<text text-anchor="start" x="573.8403" y="-782.9" font-family="Times,serif" font-weight="bold" font-style="italic" font-size="9.00" fill="#000000"> quizzes </text>
<polygon fill="none" stroke="#000000" points="544.0836,-756 544.0836,-776 635.0836,-776 635.0836,-756 544.0836,-756"/>
<text text-anchor="start" x="549.0836" y="-762.9" font-family="Times,serif" font-size="9.00" fill="#000000">title: String</text>
<polygon fill="none" stroke="#000000" points="544.0836,-736 544.0836,-756 635.0836,-756 635.0836,-736 544.0836,-736"/>
<text text-anchor="start" x="549.0836" y="-742.9" font-family="Times,serif" font-size="9.00" fill="#000000">description: String</text>
<polygon fill="none" stroke="#000000" points="544.0836,-716 544.0836,-736 635.0836,-736 635.0836,-716 544.0836,-716"/>
<text text-anchor="start" x="549.0836" y="-722.9" font-family="Times,serif" font-size="9.00" fill="#000000">course: ObjectId</text>
<polygon fill="none" stroke="#000000" points="544.0836,-696 544.0836,-716 635.0836,-716 635.0836,-696 544.0836,-696"/>
<text text-anchor="start" x="549.0836" y="-702.9" font-family="Times,serif" font-size="9.00" fill="#000000">questions: Array</text>
<polygon fill="none" stroke="#000000" points="544.0836,-676 544.0836,-696 635.0836,-696 635.0836,-676 544.0836,-676"/>
<text text-anchor="start" x="549.0836" y="-682.9" font-family="Times,serif" font-size="9.00" fill="#000000">dueDate: Date</text>
<polygon fill="none" stroke="#000000" points="544.0836,-656 544.0836,-676 635.0836,-676 635.0836,-656 544.0836,-656"/>
<text text-anchor="start" x="549.0836" y="-662.9" font-family="Times,serif" font-size="9.00" fill="#000000">totalPoints: Number</text>
<polygon fill="none" stroke="#000000" points="544.0836,-636 544.0836,-656 635.0836,-656 635.0836,-636 544.0836,-636"/>
<text text-anchor="start" x="549.0836" y="-642.9" font-family="Times,serif" font-size="9.00" fill="#000000">timeLimit: Number</text>
<polygon fill="none" stroke="#000000" points="544.0836,-616 544.0836,-636 635.0836,-636 635.0836,-616 544.0836,-616"/>
<text text-anchor="start" x="548.7204" y="-622.9" font-family="Times,serif" font-size="9.00" fill="#000000">passingScore: Number</text>
<polygon fill="none" stroke="#000000" points="544.0836,-596 544.0836,-616 635.0836,-616 635.0836,-596 544.0836,-596"/>
<text text-anchor="start" x="549.0836" y="-602.9" font-family="Times,serif" font-size="9.00" fill="#000000">attempts: Number</text>
<polygon fill="none" stroke="#000000" points="544.0836,-576 544.0836,-596 635.0836,-596 635.0836,-576 544.0836,-576"/>
<text text-anchor="start" x="549.0836" y="-582.9" font-family="Times,serif" font-size="9.00" fill="#000000">submissions: Array</text>
<polygon fill="none" stroke="#000000" points="544.0836,-556 544.0836,-576 635.0836,-576 635.0836,-556 544.0836,-556"/>
<text text-anchor="start" x="549.0836" y="-562.9" font-family="Times,serif" font-size="9.00" fill="#000000">isPublished: Boolean</text>
<polygon fill="none" stroke="#000000" points="544.0836,-536 544.0836,-556 635.0836,-556 635.0836,-536 544.0836,-536"/>
<text text-anchor="start" x="549.0836" y="-542.9" font-family="Times,serif" font-size="9.00" fill="#000000">createdAt: Date</text>
<polygon fill="none" stroke="#000000" points="544.0836,-516 544.0836,-536 635.0836,-536 635.0836,-516 544.0836,-516"/>
<text text-anchor="start" x="549.0836" y="-522.9" font-family="Times,serif" font-size="9.00" fill="#000000">updatedAt: Date</text>
<polygon fill="none" stroke="#000000" points="544.0836,-496 544.0836,-516 635.0836,-516 635.0836,-496 544.0836,-496"/>
<text text-anchor="start" x="549.0836" y="-502.9" font-family="Times,serif" font-size="9.00" fill="#000000">_id: ObjectId</text>
<polygon fill="none" stroke="#000000" points="544.0836,-476 544.0836,-496 635.0836,-496 635.0836,-476 544.0836,-476"/>
<text text-anchor="start" x="549.0836" y="-482.9" font-family="Times,serif" font-size="9.00" fill="#000000">__v: Number</text>
</g>
<!-- courses&#45;&gt;quizzes -->
<g id="edge6" class="edge">
<title>courses:9&#45;&gt;quizzes:2</title>
<path fill="none" stroke="#000000" stroke-dasharray="5,2" d="M337.0036,-726C429.0392,-726 452.048,-726 544.0836,-726"/>
<text text-anchor="middle" x="444.5934" y="-730.2" font-family="Times,serif" font-size="14.00" fill="#000000">courses&#45;quizzes</text>
<text text-anchor="middle" x="539.0303" y="-713.4" font-family="Times,serif" font-size="14.00" fill="#000000">N</text>
<text text-anchor="middle" x="340.5036" y="-730.2" font-family="Times,serif" font-size="14.00" fill="#000000">1</text>
</g>
<!-- quizsubmissions -->
<g id="node6" class="node">
<title>quizsubmissions</title>
<polygon fill="#4477c9" stroke="transparent" points="848.1292,0 848.1292,-258 948.1292,-258 948.1292,0 848.1292,0"/>
<polygon fill="#add8e6" stroke="transparent" points="848.1292,-240 848.1292,-258 948.1292,-258 948.1292,-240 848.1292,-240"/>
<polygon fill="none" stroke="#000000" points="848.1292,-240 848.1292,-258 948.1292,-258 948.1292,-240 848.1292,-240"/>
<text text-anchor="start" x="866.1292" y="-246.9" font-family="Times,serif" font-weight="bold" font-style="italic" font-size="9.00" fill="#000000"> quizsubmissions </text>
<polygon fill="none" stroke="#000000" points="848.1292,-220 848.1292,-240 948.1292,-240 948.1292,-220 848.1292,-220"/>
<text text-anchor="start" x="853.1292" y="-226.9" font-family="Times,serif" font-size="9.00" fill="#000000">quiz: ObjectId</text>
<polygon fill="none" stroke="#000000" points="848.1292,-200 848.1292,-220 948.1292,-220 948.1292,-200 848.1292,-200"/>
<text text-anchor="start" x="853.1292" y="-206.9" font-family="Times,serif" font-size="9.00" fill="#000000">student: ObjectId</text>
<polygon fill="none" stroke="#000000" points="848.1292,-180 848.1292,-200 948.1292,-200 948.1292,-180 848.1292,-180"/>
<text text-anchor="start" x="853.1292" y="-186.9" font-family="Times,serif" font-size="9.00" fill="#000000">answers: Array</text>
<polygon fill="none" stroke="#000000" points="848.1292,-160 848.1292,-180 948.1292,-180 948.1292,-160 848.1292,-160"/>
<text text-anchor="start" x="853.1292" y="-166.9" font-family="Times,serif" font-size="9.00" fill="#000000">totalScore: Number</text>
<polygon fill="none" stroke="#000000" points="848.1292,-140 848.1292,-160 948.1292,-160 948.1292,-140 848.1292,-140"/>
<text text-anchor="start" x="853.1292" y="-146.9" font-family="Times,serif" font-size="9.00" fill="#000000">percentage: Number</text>
<polygon fill="none" stroke="#000000" points="848.1292,-120 848.1292,-140 948.1292,-140 948.1292,-120 848.1292,-120"/>
<text text-anchor="start" x="853.1292" y="-126.9" font-family="Times,serif" font-size="9.00" fill="#000000">passed: Boolean</text>
<polygon fill="none" stroke="#000000" points="848.1292,-100 848.1292,-120 948.1292,-120 948.1292,-100 848.1292,-100"/>
<text text-anchor="start" x="853.1292" y="-106.9" font-family="Times,serif" font-size="9.00" fill="#000000">startedAt: Date</text>
<polygon fill="none" stroke="#000000" points="848.1292,-80 848.1292,-100 948.1292,-100 948.1292,-80 848.1292,-80"/>
<text text-anchor="start" x="853.1292" y="-86.9" font-family="Times,serif" font-size="9.00" fill="#000000">submittedAt: Date</text>
<polygon fill="none" stroke="#000000" points="848.1292,-60 848.1292,-80 948.1292,-80 948.1292,-60 848.1292,-60"/>
<text text-anchor="start" x="853.1292" y="-66.9" font-family="Times,serif" font-size="9.00" fill="#000000">feedback: String</text>
<polygon fill="none" stroke="#000000" points="848.1292,-40 848.1292,-60 948.1292,-60 948.1292,-40 848.1292,-40"/>
<text text-anchor="start" x="852.7669" y="-46.9" font-family="Times,serif" font-size="9.00" fill="#000000">attemptNumber: Number</text>
<polygon fill="none" stroke="#000000" points="848.1292,-20 848.1292,-40 948.1292,-40 948.1292,-20 848.1292,-20"/>
<text text-anchor="start" x="853.1292" y="-26.9" font-family="Times,serif" font-size="9.00" fill="#000000">_id: ObjectId</text>
<polygon fill="none" stroke="#000000" points="848.1292,0 848.1292,-20 948.1292,-20 948.1292,0 848.1292,0"/>
<text text-anchor="start" x="853.1292" y="-6.9" font-family="Times,serif" font-size="9.00" fill="#000000">__v: Number</text>
</g>
<!-- quizzes&#45;&gt;quizsubmissions -->
<g id="edge7" class="edge">
<title>quizzes:13&#45;&gt;quizsubmissions:0</title>
<path fill="none" stroke="#000000" stroke-dasharray="5,2" d="M634.5836,-506C789.6799,-506 693.0329,-230 848.1292,-230"/>
<text text-anchor="middle" x="741.3564" y="-502.2" font-family="Times,serif" font-size="14.00" fill="#000000">quizzes&#45;quizsubmissions</text>
<text text-anchor="middle" x="843.0759" y="-217.4" font-family="Times,serif" font-size="14.00" fill="#000000">N</text>
<text text-anchor="middle" x="638.0836" y="-493.4" font-family="Times,serif" font-size="14.00" fill="#000000">1</text>
</g>
<!-- users -->
<g id="node8" class="node">
<title>users</title>
<polygon fill="#4477c9" stroke="transparent" points="0,-621 0,-899 101,-899 101,-621 0,-621"/>
<polygon fill="#add8e6" stroke="transparent" points=".5,-881 .5,-899 101.5,-899 101.5,-881 .5,-881"/>
<polygon fill="none" stroke="#000000" points=".5,-881 .5,-899 101.5,-899 101.5,-881 .5,-881"/>
<text text-anchor="start" x="39.5043" y="-887.9" font-family="Times,serif" font-weight="bold" font-style="italic" font-size="9.00" fill="#000000"> users </text>
<polygon fill="none" stroke="#000000" points=".5,-861 .5,-881 101.5,-881 101.5,-861 .5,-861"/>
<text text-anchor="start" x="5.5" y="-867.9" font-family="Times,serif" font-size="9.00" fill="#000000">email: String</text>
<polygon fill="none" stroke="#000000" points=".5,-841 .5,-861 101.5,-861 101.5,-841 .5,-841"/>
<text text-anchor="start" x="5.5" y="-847.9" font-family="Times,serif" font-size="9.00" fill="#000000">role: String</text>
<polygon fill="none" stroke="#000000" points=".5,-821 .5,-841 101.5,-841 101.5,-821 .5,-821"/>
<text text-anchor="start" x="5.5" y="-827.9" font-family="Times,serif" font-size="9.00" fill="#000000">password: String</text>
<polygon fill="none" stroke="#000000" points=".5,-801 .5,-821 101.5,-821 101.5,-801 .5,-801"/>
<text text-anchor="start" x="5.3812" y="-807.9" font-family="Times,serif" font-size="9.00" fill="#000000">passwordConfirm: String</text>
<polygon fill="none" stroke="#000000" points=".5,-781 .5,-801 101.5,-801 101.5,-781 .5,-781"/>
<text text-anchor="start" x="5.5" y="-787.9" font-family="Times,serif" font-size="9.00" fill="#000000">name: String</text>
<polygon fill="none" stroke="#000000" points=".5,-761 .5,-781 101.5,-781 101.5,-761 .5,-761"/>
<text text-anchor="start" x="5.5" y="-767.9" font-family="Times,serif" font-size="9.00" fill="#000000">studentId: String</text>
<polygon fill="none" stroke="#000000" points=".5,-741 .5,-761 101.5,-761 101.5,-741 .5,-741"/>
<text text-anchor="start" x="5.5" y="-747.9" font-family="Times,serif" font-size="9.00" fill="#000000">GPA: Number</text>
<polygon fill="none" stroke="#000000" points=".5,-721 .5,-741 101.5,-741 101.5,-721 .5,-721"/>
<text text-anchor="start" x="5.5" y="-727.9" font-family="Times,serif" font-size="9.00" fill="#000000">major: String</text>
<polygon fill="none" stroke="#000000" points=".5,-701 .5,-721 101.5,-721 101.5,-701 .5,-701"/>
<text text-anchor="start" x="5.5" y="-707.9" font-family="Times,serif" font-size="9.00" fill="#000000">level: Number</text>
<polygon fill="none" stroke="#000000" points=".5,-681 .5,-701 101.5,-701 101.5,-681 .5,-681"/>
<text text-anchor="start" x="5.5" y="-687.9" font-family="Times,serif" font-size="9.00" fill="#000000">photo: String</text>
<polygon fill="none" stroke="#000000" points=".5,-661 .5,-681 101.5,-681 101.5,-661 .5,-661"/>
<text text-anchor="start" x="5.5" y="-667.9" font-family="Times,serif" font-size="9.00" fill="#000000">DateJoined: Date</text>
<polygon fill="none" stroke="#000000" points=".5,-641 .5,-661 101.5,-661 101.5,-641 .5,-641"/>
<text text-anchor="start" x="5.5" y="-647.9" font-family="Times,serif" font-size="9.00" fill="#000000">_id: ObjectId</text>
<polygon fill="none" stroke="#000000" points=".5,-621 .5,-641 101.5,-641 101.5,-621 .5,-621"/>
<text text-anchor="start" x="5.5" y="-627.9" font-family="Times,serif" font-size="9.00" fill="#000000">__v: Number</text>
</g>
<!-- users&#45;&gt;courses -->
<g id="edge2" class="edge">
<title>users:11&#45;&gt;courses:2</title>
<path fill="none" stroke="#000000" stroke-dasharray="5,2" d="M101,-651C219.0601,-651 138.9435,-866 257.0036,-866"/>
<text text-anchor="middle" x="174.702" y="-851.2" font-family="Times,serif" font-size="14.00" fill="#000000">users&#45;courses</text>
<text text-anchor="middle" x="251.9503" y="-853.4" font-family="Times,serif" font-size="14.00" fill="#000000">N</text>
<text text-anchor="middle" x="104.5" y="-638.4" font-family="Times,serif" font-size="14.00" fill="#000000">1</text>
</g>
<!-- users&#45;&gt;discussions -->
<g id="edge4" class="edge">
<title>users:11&#45;&gt;discussions:1</title>
<path fill="none" stroke="#000000" stroke-dasharray="5,2" d="M101,-651C179.4209,-651 314.5103,-477.6002 381.6032,-437 454.4042,-392.9456 469.9908,-356 555.0836,-356"/>
<text text-anchor="middle" x="297.0036" y="-559.2" font-family="Times,serif" font-size="14.00" fill="#000000">users&#45;discussions</text>
<text text-anchor="middle" x="550.0303" y="-343.4" font-family="Times,serif" font-size="14.00" fill="#000000">N</text>
<text text-anchor="middle" x="104.5" y="-655.2" font-family="Times,serif" font-size="14.00" fill="#000000">1</text>
</g>
<!-- users&#45;&gt;quizsubmissions -->
<g id="edge8" class="edge">
<title>users:11&#45;&gt;quizsubmissions:1</title>
<path fill="none" stroke="#000000" stroke-dasharray="5,2" d="M101,-651C139.5848,-651 115.8623,-604.2798 137,-572 272.832,-364.568 310.6318,-274.9224 543.5836,-190 581.5819,-176.1478 594.1832,-188.1122 634.5836,-190 729.8042,-194.4493 752.8047,-210 848.1292,-210"/>
<text text-anchor="middle" x="444.5934" y="-272.2" font-family="Times,serif" font-size="14.00" fill="#000000">users&#45;quizsubmissions</text>
<text text-anchor="middle" x="843.0759" y="-197.4" font-family="Times,serif" font-size="14.00" fill="#000000">N</text>
<text text-anchor="middle" x="97.5" y="-655.2" font-family="Times,serif" font-size="14.00" fill="#000000">1</text>
</g>
<!-- users&#45;&gt;submissions -->
<g id="edge10" class="edge">
<title>users:11&#45;&gt;submissions:1</title>
<path fill="none" stroke="#000000" stroke-dasharray="5,2" d="M101,-651C152.953,-651 119.4466,-833.1023 137,-882 209.0792,-1082.7876 223.3257,-1151.964 381.6032,-1295 482.2233,-1385.9308 535.5072,-1380.8674 670.5836,-1393 733.2405,-1398.6279 754.148,-1417.4079 812.1292,-1393 837.3305,-1382.3912 827.7859,-1349 855.1292,-1349"/>
<text text-anchor="middle" x="444.5934" y="-1375.2" font-family="Times,serif" font-size="14.00" fill="#000000">users&#45;submissions</text>
<text text-anchor="middle" x="850.0759" y="-1336.4" font-family="Times,serif" font-size="14.00" fill="#000000">N</text>
<text text-anchor="middle" x="104.5" y="-655.2" font-family="Times,serif" font-size="14.00" fill="#000000">1</text>
</g>
</g>
</svg>
